<?xml version="1.0" encoding="UTF-8"?>
<svg width="14px" height="14px" viewBox="0 0 14 14" version="1.1" xmlns="http://www.w3.org/2000/svg" xmlns:xlink="http://www.w3.org/1999/xlink">
    <title>切片</title>
    <g id="页面-1" stroke="none" stroke-width="1" fill="none" fill-rule="evenodd">
        <g id="画板" transform="translate(-397.000000, -1934.000000)" fill="#666666" fill-rule="nonzero">
            <g id="编组备份" transform="translate(397.000000, 1889.000000)">
                <g id="编组" transform="translate(0.000000, 45.000000)">
                    <path d="M5.47002552,9.3067602 C5.38839286,9.3067602 5.3067602,9.27410714 5.24145408,9.20880102 C5.11084183,9.07818877 5.11084183,8.87410714 5.24145408,8.74349489 L7.69043367,6.29451531 C7.82104592,6.16390306 8.02512755,6.16390306 8.1557398,6.29451531 C8.28635205,6.42512756 8.28635205,6.62920919 8.1557398,6.75982142 L5.7067602,9.20880102 C5.63329081,9.27410714 5.55165816,9.3067602 5.47002552,9.3067602 L5.47002552,9.3067602 Z" id="路径"></path>
                    <path d="M7.91900511,6.85778061 C7.83737245,6.85778061 7.7557398,6.82512755 7.69043367,6.75982142 L5.24145408,4.31084184 C5.11084183,4.18022959 5.11084183,3.97614797 5.24145408,3.84553572 C5.37206633,3.71492347 5.57614795,3.71492347 5.7067602,3.84553572 L8.1557398,6.29451531 C8.28635205,6.42512756 8.28635205,6.62920919 8.1557398,6.75982142 C8.08227041,6.82512755 8.00063775,6.85778061 7.91900511,6.85778061 Z" id="路径"></path>
                    <path d="M6.53125,13.0618623 C2.93125,13.0618623 0.00063775,10.13125 0.00063775,6.53125 C0.00063775,2.93125 2.93125,0.00063775 6.53125,0.00063775 C10.13125,0.00063775 13.0618623,2.93125 13.0618623,6.53125 C13.0618623,10.13125 10.13125,13.0618623 6.53125,13.0618623 Z M6.53125,0.653698984 C3.29043367,0.653698984 0.653698984,3.29043367 0.653698984,6.53125 C0.653698984,9.77206633 3.29043367,12.408801 6.53125,12.408801 C9.77206633,12.408801 12.408801,9.77206633 12.408801,6.53125 C12.408801,3.29043367 9.77206633,0.653698984 6.53125,0.653698984 Z" id="形状"></path>
                </g>
            </g>
        </g>
    </g>
</svg>